{
    "asset" : {
        "generator" : "Khronos glTF Blender I/O v1.7.33",
        "version" : "2.0"
    },
    "scene" : 0,
    "scenes" : [
        {
            "name" : "Scene",
            "nodes" : [
                0
            ]
        }
    ],
    "nodes" : [
        {
            "mesh" : 0,
            "name" : "3D_WMP10",
            "scale" : [
                -1,
                1,
                1
            ],
            "translation" : [
                -0.05980661138892174,
                0,
                0
            ]
        }
    ],
    "materials" : [
        {
            "doubleSided" : true,
            "name" : "desilterMat.002",
            "pbrMetallicRoughness" : {
                "baseColorFactor" : [
                    0,
                    0.06427585333585739,
                    0.2165197879076004,
                    1
                ],
                "metallicFactor" : 0,
                "roughnessFactor" : 0.5
            }
        }
    ],
    "meshes" : [
        {
            "name" : "3D_WMP10",
            "primitives" : [
                {
                    "attributes" : {
                        "POSITION" : 0,
                        "NORMAL" : 1
                    },
                    "indices" : 2,
                    "material" : 0
                }
            ]
        }
    ],
    "accessors" : [
        {
            "bufferView" : 0,
            "componentType" : 5126,
            "count" : 66867,
            "max" : [
                1.5654628276824951,
                0.9497778415679932,
                1.6769752502441406
            ],
            "min" : [
                -1.1330833435058594,
                -1.2807695865631104,
                -3.509002685546875
            ],
            "type" : "VEC3"
        },
        {
            "bufferView" : 1,
            "componentType" : 5126,
            "count" : 66867,
            "type" : "VEC3"
        },
        {
            "bufferView" : 2,
            "componentType" : 5125,
            "count" : 75336,
            "type" : "SCALAR"
        }
    ],
    "bufferViews" : [
        {
            "buffer" : 0,
            "byteLength" : 802404,
            "byteOffset" : 0
        },
        {
            "buffer" : 0,
            "byteLength" : 802404,
            "byteOffset" : 802404
        },
        {
            "buffer" : 0,
            "byteLength" : 301344,
            "byteOffset" : 1604808
        }
    ],
    "buffers" : [
        {
            "byteLength" : 1906152,
            "uri" : "data:application/octet-stream;base64,"
        }
    ]
}
